<svg width="30px" height="30px" viewBox="0 -1.667 30 30" xmlns="http://www.w3.org/2000/svg">
    <path
        d="M27.505 8.932L19.896 7.823 16.495 0.927c-0.609 -1.229 -2.375 -1.245 -2.99 0L10.104 7.823 2.495 8.932c-1.365 0.198 -1.911 1.88 -0.922 2.844l5.505 5.365 -1.302 7.578c-0.234 1.37 1.208 2.396 2.417 1.755L15 22.896l6.807 3.578c1.208 0.635 2.651 -0.385 2.417 -1.755l-1.302 -7.578 5.505 -5.365c0.99 -0.964 0.443 -2.646 -0.922 -2.844zM20.24 16.266l1.234 7.208L15 20.073l-6.474 3.401 1.234 -7.208 -5.24 -5.104 7.24 -1.052 3.24 -6.563 3.24 6.563 7.24 1.052 -5.24 5.104z" />
</svg>